

Los Angeles, 1949. Ruthless, Brooklyn-born mob king Mickey Cohen (Sean Penn) runs the show in this town, reaping the ill-gotten gains from the drugs, the guns, the prostitutes andΓÇöif he has his wayΓÇöevery wire bet placed west of Chicago. And he does it all with the protection of not only his own paid goons, but also the police and the politicians he has under his thumb. ItΓÇÖs enough to intimidate even the bravest, street-hardened copΓÇªexcept, perhaps, for the small, secret crew of LAPD outsiders led by Sgt. John OΓÇÖMara (Josh Brolin) and Sgt. Jerry Wooters (Ryan Gosling), who come together to try to tear CohenΓÇÖs world apart.



General

Format                                   : MPEG-4
Format profile                           : Base Media / Version 2
Codec ID                                 : mp42
File size                                : 2.86 GiB
Duration                                 : 1h 52mn
Overall bit rate mode                    : Variable
Overall bit rate                         : 3 634 Kbps
Encoded date                             : UTC 2013-04-07 14:45:12
Tagged date                              : UTC 2013-04-07 14:45:12

Video
ID                                       : 1
Format                                   : MPEG-4 Visual
Format profile                           : Simple@L1
Format settings, BVOP                    : No
Format settings, QPel                    : No
Format settings, GMC                     : No warppoints
Format settings, Matrix                  : Default (H.263)
Codec ID                                 : 20
Duration                                 : 1h 52mn
Bit rate mode                            : Variable
Bit rate                                 : 3 499 Kbps
Maximum bit rate                         : 22.7 Mbps
Width                                    : 1 920 pixels
Height                                   : 800 pixels
Display aspect ratio                     : 2.40:1
Frame rate mode                          : Constant
Frame rate                               : 29.970 fps
Color space                              : YUV
Chroma subsampling                       : 4:2:0
Bit depth                                : 8 bits
Scan type                                : Progressive
Compression mode                         : Lossy
Bits/(Pixel*Frame)                       : 0.076
Stream size                              : 2.75 GiB (96%)
Writing library                          : Lavc54.92.100
Encoded date                             : UTC 2013-04-08 12:35:02
Tagged date                              : UTC 2013-04-07 14:48:54

Audio
ID                                       : 2
Format                                   : AAC
Format/Info                              : Advanced Audio Codec
Format profile                           : LC
Codec ID                                 : 40
Duration                                 : 1h 52mn
Bit rate mode                            : Variable
Bit rate                                 : 132 Kbps
Maximum bit rate                         : 170 Kbps
Channel(s)                               : 6 channels
Channel positions                        : Front: L C R, Side: L R, LFE
Sampling rate                            : 44.1 KHz
Compression mode                         : Lossy
Stream size                              : 107 MiB (4%)
Encoded date                             : UTC 2013-04-08 12:40:39
Tagged date                              : UTC 2013-04-07 14:48:54

